<?xml version="1.0" encoding="iso-8859-1"?>
<!-- Generator: Adobe Illustrator 19.0.0, SVG Export Plug-In . SVG Version: 6.00 Build 0)  -->
<svg version="1.1" id="Layer_1" xmlns="http://www.w3.org/2000/svg" xmlns:xlink="http://www.w3.org/1999/xlink" x="0px" y="0px"
	 viewBox="0 0 512 512" style="enable-background:new 0 0 512 512;" xml:space="preserve">
<g>
	<g>
		<g>
			<path d="M493.474,133.673c-7.651-7.651-20.055-7.651-27.707,0l-95.424,95.424H32.379c-10.82,0-19.592,8.772-19.592,19.592v49.189
				c0,82.677,67.262,149.939,149.94,149.939h1.3v44.592c0,10.82,8.772,19.592,19.592,19.592h138.805
				c10.82,0,19.592-8.772,19.592-19.592v-44.592h1.3c82.678,0,149.94-67.262,149.94-149.939v-49.189
				c0-10.82-8.772-19.592-19.592-19.592h-47.906l67.718-67.718C501.126,153.728,501.126,141.322,493.474,133.673z M302.831,472.818
				h-99.622v-25h99.622V472.818z M454.069,268.28v29.598h0.001c0,61.071-49.686,110.755-110.757,110.755
				c-7.767,0-173.543,0-180.588,0c-61.071,0-110.757-49.684-110.757-110.755V268.28H454.069z"/>
			<path d="M132.77,124.007c22.607,8.712,22.598,40.858,0,49.567c-10.096,3.891-15.127,15.229-11.238,25.327
				c3.892,10.098,15.233,15.126,25.327,11.235c25.187-9.707,42.11-34.36,42.11-61.345c0-26.987-16.923-51.638-42.109-61.345
				c-22.611-8.714-22.598-40.856,0-49.567c10.095-3.891,15.126-15.231,11.235-25.327c-3.891-10.098-15.233-15.126-25.327-11.236
				c-25.187,9.707-42.109,34.36-42.109,61.345S107.582,114.3,132.77,124.007z"/>
			<path d="M238.518,124.007c22.607,8.712,22.598,40.858,0,49.567c-10.095,3.891-15.126,15.231-11.235,25.327
				c3.891,10.098,15.233,15.126,25.327,11.235c25.186-9.707,42.108-34.36,42.108-61.345s-16.922-51.638-42.109-61.345
				c-22.607-8.712-22.598-40.859,0-49.567c10.096-3.891,15.127-15.229,11.238-25.327c-3.891-10.098-15.233-15.126-25.327-11.236
				c-25.187,9.707-42.11,34.359-42.11,61.345S213.332,114.3,238.518,124.007z"/>
		</g>
	</g>
</g>
<g>
</g>
<g>
</g>
<g>
</g>
<g>
</g>
<g>
</g>
<g>
</g>
<g>
</g>
<g>
</g>
<g>
</g>
<g>
</g>
<g>
</g>
<g>
</g>
<g>
</g>
<g>
</g>
<g>
</g>
</svg>
